<svg xmlns="http://www.w3.org/2000/svg" viewBox="0 -0.5 16 16" shape-rendering="crispEdges">
<metadata>Made with Pixels to Svg https://codepen.io/shshaw/pen/XbxvNj</metadata>
<path stroke="#a2b29f" d="M2 0h12M1 1h14M0 2h8M9 2h3M13 2h3M0 3h8M13 3h3M0 4h8M13 4h3M0 5h8M13 5h3M0 6h8M13 6h3M0 7h7M12 7h4M0 8h6M13 8h3M0 9h3M4 9h2M13 9h3M0 10h2M3 10h2M13 10h3M0 11h2M3 11h2M13 11h3M0 12h2M4 12h1M12 12h4M0 13h3M11 13h5M1 14h14M2 15h12" />
<path stroke="#0f0f0e" d="M8 2h1M12 2h1M8 3h5M8 4h5M8 5h5M8 6h5M7 7h5M6 8h7M3 9h1M6 9h7M2 10h1M5 10h8M2 11h1M5 11h8M2 12h2M5 12h7M3 13h8" />
</svg>